<svg width="43" height="44" viewBox="0 0 43 44" fill="none" xmlns="http://www.w3.org/2000/svg">
<path d="M39.5019 21.6698C39.5019 32.1035 31.4073 40.5715 21.4135 40.5715C11.4196 40.5715 3.32507 32.1035 3.32507 21.6698C3.32507 11.2265 11.4196 2.76797 21.4135 2.76797C31.4073 2.76797 39.5019 11.2265 39.5019 21.6698Z" fill="#283544"/>
<path d="M29.8919 16.8868C29.7932 16.947 27.4435 18.2168 27.4435 21.0323C27.5542 24.2432 30.4087 25.3693 30.4577 25.3693C30.4087 25.4295 30.0267 26.9032 28.8952 28.4482C27.9972 29.7789 27.0005 31.1207 25.487 31.1207C24.0473 31.1207 23.5304 30.2337 21.8693 30.2337C20.0853 30.2337 19.5805 31.1207 18.2147 31.1207C16.7011 31.1207 15.6306 29.707 14.6836 28.3888C13.4534 26.6633 12.4077 23.9557 12.3708 21.3558C12.3459 19.9782 12.6172 18.6239 13.3057 17.4736C14.2776 15.8678 16.0126 14.7777 17.9073 14.7417C19.359 14.6941 20.6511 15.7123 21.537 15.7123C22.3861 15.7123 23.9734 14.7417 25.7694 14.7417C26.5447 14.7425 28.6119 14.9699 29.8919 16.8868ZM21.4142 14.4667C21.1558 13.2086 21.8693 11.9504 22.5337 11.1479C23.3828 10.1774 24.7238 9.51862 25.8802 9.51862C25.954 10.7767 25.4862 12.0106 24.6499 12.9093C23.8996 13.8798 22.6076 14.6105 21.4142 14.4667Z" fill="white"/>
</svg>
