<svg width="43" height="44" viewBox="0 0 43 44" fill="none" xmlns="http://www.w3.org/2000/svg">
<path d="M39.6941 22.0896C39.6941 20.5354 39.5709 19.4013 39.3044 18.2252H21.9749V25.2398H32.1469C31.9419 26.983 30.8345 29.6083 28.3734 31.3724L28.3389 31.6072L33.8182 35.9541L34.1978 35.9929C37.6842 32.6956 39.6941 27.8441 39.6941 22.0896Z" fill="#4285F4"/>
<path d="M21.9736 40.5716C26.957 40.5716 31.1407 38.8913 34.1965 35.9931L28.3721 31.3725C26.8135 32.4856 24.7216 33.2627 21.9736 33.2627C17.0926 33.2627 12.95 29.9655 11.4733 25.408L11.2568 25.4268L5.55937 29.9423L5.48486 30.1544C8.52006 36.329 14.7546 40.5716 21.9736 40.5716Z" fill="#34A853"/>
<path d="M11.4745 25.4081C11.0849 24.232 10.8593 22.9718 10.8593 21.6697C10.8593 20.3675 11.0849 19.1074 11.454 17.9314L11.4437 17.6809L5.67484 13.0929L5.48609 13.1848C4.23514 15.7471 3.51733 18.6244 3.51733 21.6697C3.51733 24.715 4.23514 27.5922 5.48609 30.1545L11.4745 25.4081Z" fill="#FBBC05"/>
<path d="M21.9737 10.0766C25.4396 10.0766 27.7775 11.6098 29.1106 12.891L34.3197 7.68244C31.1205 4.63716 26.9572 2.76797 21.9737 2.76797C14.7547 2.76797 8.52008 7.01034 5.48486 13.1849L11.4528 17.9314C12.95 13.374 17.0927 10.0766 21.9737 10.0766Z" fill="#EB4335"/>
</svg>
